Mono_opsz8.ufo
<glyph name="dollar" format="2">
  <advance width="531"/>
  <unicode hex="0024"/>
  <outline>
    <contour>
      <point x="298" y="548" type="line"/>
      <point x="347" y="540"/>
      <point x="376" y="519"/>
      <point x="389" y="487" type="curve"/>
      <point x="383" y="482"/>
      <point x="374" y="474"/>
      <point x="374" y="450" type="curve" smooth="yes"/>
      <point x="374" y="423"/>
      <point x="395" y="402"/>
      <point x="422" y="402" type="curve" smooth="yes"/>
      <point x="443" y="402"/>
      <point x="471" y="415"/>
      <point x="471" y="454" type="curve" smooth="yes"/>
      <point x="471" y="507"/>
      <point x="444" y="599"/>
      <point x="298" y="615" type="curve"/>
      <point x="298" y="651" type="line" smooth="yes"/>
      <point x="298" y="666"/>
      <point x="298" y="694"/>
      <point x="265" y="694" type="curve" smooth="yes"/>
      <point x="232" y="694"/>
      <point x="232" y="665"/>
      <point x="232" y="651" type="curve" smooth="yes"/>
      <point x="232" y="614" type="line"/>
      <point x="129" y="601"/>
      <point x="59" y="529"/>
      <point x="59" y="450" type="curve" smooth="yes"/>
      <point x="59" y="405"/>
      <point x="85" y="313"/>
      <point x="232" y="286" type="curve"/>
      <point x="232" y="64" type="line"/>
      <point x="184" y="72"/>
      <point x="153" y="95"/>
      <point x="140" y="137" type="curve"/>
      <point x="149" y="144"/>
      <point x="156" y="157"/>
      <point x="156" y="173" type="curve" smooth="yes"/>
      <point x="156" y="199"/>
      <point x="137" y="221"/>
      <point x="108" y="221" type="curve" smooth="yes"/>
      <point x="84" y="221"/>
      <point x="59" y="207"/>
      <point x="59" y="169" type="curve" smooth="yes"/>
      <point x="59" y="113"/>
      <point x="89" y="13"/>
      <point x="232" y="-3" type="curve"/>
      <point x="232" y="-40" type="line" smooth="yes"/>
      <point x="232" y="-54"/>
      <point x="232" y="-83"/>
      <point x="265" y="-83" type="curve" smooth="yes"/>
      <point x="298" y="-83"/>
      <point x="298" y="-55"/>
      <point x="298" y="-40" type="curve" smooth="yes"/>
      <point x="298" y="-3" type="line"/>
      <point x="397" y="11"/>
      <point x="471" y="85"/>
      <point x="471" y="174" type="curve" smooth="yes"/>
      <point x="471" y="238"/>
      <point x="428" y="325"/>
      <point x="298" y="350" type="curve"/>
    </contour>
    <contour>
      <point x="232" y="363" type="line"/>
      <point x="173" y="375"/>
      <point x="129" y="410"/>
      <point x="129" y="455" type="curve" smooth="yes"/>
      <point x="129" y="488"/>
      <point x="158" y="533"/>
      <point x="232" y="547" type="curve"/>
    </contour>
    <contour>
      <point x="298" y="272" type="line"/>
      <point x="354" y="260"/>
      <point x="401" y="220"/>
      <point x="401" y="168" type="curve" smooth="yes"/>
      <point x="401" y="122"/>
      <point x="360" y="77"/>
      <point x="298" y="64" type="curve"/>
    </contour>
  </outline>
</glyph>
<glyph name="parenleft" format="2">
  <advance width="531"/>
  <unicode hex="0028"/>
  <outline>
    <contour>
      <point x="441" y="-52" type="curve" smooth="yes"/>
      <point x="441" y="-35"/>
      <point x="430" y="-28"/>
      <point x="424" y="-24" type="curve" smooth="yes"/>
      <point x="272" y="76"/>
      <point x="248" y="225"/>
      <point x="248" y="305" type="curve" smooth="yes"/>
      <point x="248" y="345"/>
      <point x="254" y="419"/>
      <point x="295" y="495" type="curve" smooth="yes"/>
      <point x="332" y="564"/>
      <point x="376" y="603"/>
      <point x="427" y="637" type="curve" smooth="yes"/>
      <point x="439" y="645"/>
      <point x="441" y="657"/>
      <point x="441" y="663" type="curve" smooth="yes"/>
      <point x="441" y="676"/>
      <point x="432" y="694"/>
      <point x="408" y="694" type="curve" smooth="yes"/>
      <point x="375" y="694"/>
      <point x="172" y="560"/>
      <point x="172" y="306" type="curve" smooth="yes"/>
      <point x="172" y="51"/>
      <point x="375" y="-83"/>
      <point x="408" y="-83" type="curve" smooth="yes"/>
      <point x="432" y="-83"/>
      <point x="441" y="-65"/>
    </contour>
  </outline>
</glyph>
<glyph name="comma" format="2">
  <advance width="531"/>
  <unicode hex="002C"/>
  <outline>
    <contour>
      <point x="284" y="2" type="curve"/>
      <point x="271" y="-36"/>
      <point x="247" y="-61"/>
      <point x="208" y="-74" type="curve" smooth="yes"/>
      <point x="199" y="-77"/>
      <point x="180" y="-83"/>
      <point x="180" y="-105" type="curve" smooth="yes"/>
      <point x="180" y="-122"/>
      <point x="196" y="-139"/>
      <point x="214" y="-139" type="curve" smooth="yes"/>
      <point x="248" y="-139"/>
      <point x="354" y="-84"/>
      <point x="354" y="31" type="curve" smooth="yes"/>
      <point x="354" y="92"/>
      <point x="314" y="135"/>
      <point x="266" y="135" type="curve" smooth="yes"/>
      <point x="223" y="135"/>
      <point x="198" y="103"/>
      <point x="198" y="67" type="curve" smooth="yes"/>
      <point x="198" y="35"/>
      <point x="221" y="0"/>
      <point x="266" y="0" type="curve" smooth="yes"/>
      <point x="276" y="0"/>
      <point x="279" y="1"/>
    </contour>
  </outline>
</glyph>
<glyph name="zero" format="2">
  <advance width="531"/>
  <unicode hex="0030"/>
  <outline>
    <contour>
      <point x="482" y="305" type="curve" smooth="yes"/>
      <point x="482" y="490"/>
      <point x="378" y="621"/>
      <point x="265" y="621" type="curve" smooth="yes"/>
      <point x="151" y="621"/>
      <point x="48" y="488"/>
      <point x="48" y="306" type="curve" smooth="yes"/>
      <point x="48" y="121"/>
      <point x="152" y="-10"/>
      <point x="265" y="-10" type="curve" smooth="yes"/>
      <point x="379" y="-10"/>
      <point x="482" y="123"/>
    </contour>
    <contour>
      <point x="265" y="56" type="curve" smooth="yes"/>
      <point x="187" y="56"/>
      <point x="124" y="172"/>
      <point x="124" y="316" type="curve" smooth="yes"/>
      <point x="124" y="458"/>
      <point x="192" y="555"/>
      <point x="265" y="555" type="curve" smooth="yes"/>
      <point x="338" y="555"/>
      <point x="406" y="459"/>
      <point x="406" y="316" type="curve" smooth="yes"/>
      <point x="406" y="172"/>
      <point x="342" y="56"/>
    </contour>
  </outline>
</glyph>
<glyph name="semicolon" format="2">
  <advance width="531"/>
  <unicode hex="003B"/>
  <outline>
    <contour>
      <point x="333" y="363" type="curve" smooth="yes"/>
      <point x="333" y="403"/>
      <point x="301" y="431"/>
      <point x="266" y="431" type="curve" smooth="yes"/>
      <point x="226" y="431"/>
      <point x="198" y="399"/>
      <point x="198" y="364" type="curve" smooth="yes"/>
      <point x="198" y="324"/>
      <point x="230" y="296"/>
      <point x="265" y="296" type="curve" smooth="yes"/>
      <point x="305" y="296"/>
      <point x="333" y="328"/>
    </contour>
    <contour>
      <point x="267" y="0" type="curve"/>
      <point x="255" y="-39"/>
      <point x="230" y="-62"/>
      <point x="202" y="-75" type="curve" smooth="yes"/>
      <point x="196" y="-78"/>
      <point x="180" y="-85"/>
      <point x="180" y="-105" type="curve" smooth="yes"/>
      <point x="180" y="-122"/>
      <point x="195" y="-139"/>
      <point x="214" y="-139" type="curve" smooth="yes"/>
      <point x="238" y="-139"/>
      <point x="338" y="-83"/>
      <point x="338" y="33" type="curve" smooth="yes"/>
      <point x="338" y="90"/>
      <point x="313" y="135"/>
      <point x="265" y="135" type="curve" smooth="yes"/>
      <point x="226" y="135"/>
      <point x="198" y="106"/>
      <point x="198" y="67" type="curve" smooth="yes"/>
      <point x="198" y="52"/>
      <point x="206" y="2"/>
    </contour>
  </outline>
</glyph>
<glyph name="less" format="2">
  <advance width="531"/>
  <unicode hex="003C"/>
  <outline>
    <contour>
      <point x="167" y="305" type="line"/>
      <point x="449" y="485" type="line" smooth="yes"/>
      <point x="460" y="492"/>
      <point x="473" y="500"/>
      <point x="473" y="521" type="curve" smooth="yes"/>
      <point x="473" y="544"/>
      <point x="454" y="560"/>
      <point x="435" y="560" type="curve" smooth="yes"/>
      <point x="424" y="560"/>
      <point x="419" y="556"/>
      <point x="406" y="548" type="curve" smooth="yes"/>
      <point x="80" y="341" type="line" smooth="yes"/>
      <point x="71" y="335"/>
      <point x="57" y="326"/>
      <point x="57" y="306" type="curve" smooth="yes"/>
      <point x="57" y="285"/>
      <point x="70" y="277"/>
      <point x="80" y="270" type="curve" smooth="yes"/>
      <point x="405" y="63" type="line" smooth="yes"/>
      <point x="419" y="54"/>
      <point x="422" y="53"/>
      <point x="432" y="52" type="curve"/>
      <point x="433" y="51"/>
      <point x="434" y="51"/>
      <point x="435" y="51" type="curve" smooth="yes"/>
      <point x="454" y="51"/>
      <point x="473" y="67"/>
      <point x="473" y="90" type="curve" smooth="yes"/>
      <point x="473" y="111"/>
      <point x="460" y="119"/>
      <point x="449" y="126" type="curve" smooth="yes"/>
    </contour>
  </outline>
</glyph>
<glyph name="question" format="2">
  <advance width="531"/>
  <unicode hex="003F"/>
  <outline>
    <contour>
      <point x="292" y="249" type="line" smooth="yes"/>
      <point x="292" y="280"/>
      <point x="296" y="341"/>
      <point x="397" y="394" type="curve" smooth="yes"/>
      <point x="420" y="406"/>
      <point x="468" y="434"/>
      <point x="468" y="492" type="curve" smooth="yes"/>
      <point x="468" y="546"/>
      <point x="423" y="616"/>
      <point x="255" y="616" type="curve" smooth="yes"/>
      <point x="107" y="616"/>
      <point x="63" y="548"/>
      <point x="63" y="494" type="curve" smooth="yes"/>
      <point x="63" y="460"/>
      <point x="88" y="444"/>
      <point x="112" y="444" type="curve" smooth="yes"/>
      <point x="137" y="444"/>
      <point x="160" y="463"/>
      <point x="160" y="492" type="curve" smooth="yes"/>
      <point x="160" y="496"/>
      <point x="160" y="509"/>
      <point x="151" y="520" type="curve"/>
      <point x="181" y="550"/>
      <point x="237" y="550"/>
      <point x="255" y="550" type="curve" smooth="yes"/>
      <point x="350" y="550"/>
      <point x="392" y="522"/>
      <point x="392" y="492" type="curve" smooth="yes"/>
      <point x="392" y="470"/>
      <point x="368" y="457"/>
      <point x="360" y="453" type="curve" smooth="yes"/>
      <point x="208" y="372"/>
      <point x="206" y="292"/>
      <point x="206" y="243" type="curve" smooth="yes"/>
      <point x="206" y="206"/>
      <point x="206" y="190"/>
      <point x="249" y="190" type="curve" smooth="yes"/>
      <point x="277" y="190"/>
      <point x="292" y="193"/>
      <point x="292" y="233" type="curve" smooth="yes"/>
    </contour>
    <contour>
      <point x="303" y="54" type="curve" smooth="yes"/>
      <point x="303" y="84"/>
      <point x="279" y="108"/>
      <point x="249" y="108" type="curve" smooth="yes"/>
      <point x="219" y="108"/>
      <point x="195" y="84"/>
      <point x="195" y="54" type="curve" smooth="yes"/>
      <point x="195" y="24"/>
      <point x="219" y="0"/>
      <point x="249" y="0" type="curve" smooth="yes"/>
      <point x="279" y="0"/>
      <point x="303" y="24"/>
    </contour>
  </outline>
</glyph>
<glyph name="at" format="2">
  <advance width="531"/>
  <unicode hex="0040"/>
  <outline>
    <contour>
      <point x="397" y="489" type="curve"/>
      <point x="385" y="496"/>
      <point x="363" y="505"/>
      <point x="338" y="505" type="curve" smooth="yes"/>
      <point x="259" y="505"/>
      <point x="190" y="422"/>
      <point x="190" y="305" type="curve" smooth="yes"/>
      <point x="190" y="192"/>
      <point x="257" y="106"/>
      <point x="338" y="106" type="curve" smooth="yes"/>
      <point x="386" y="106"/>
      <point x="486" y="146"/>
      <point x="486" y="321" type="curve" smooth="yes"/>
      <point x="486" y="385"/>
      <point x="486" y="616"/>
      <point x="308" y="616" type="curve" smooth="yes"/>
      <point x="169" y="616"/>
      <point x="44" y="483"/>
      <point x="44" y="306" type="curve" smooth="yes"/>
      <point x="44" y="129"/>
      <point x="166" y="-5"/>
      <point x="310" y="-5" type="curve" smooth="yes"/>
      <point x="399" y="-5"/>
      <point x="486" y="51"/>
      <point x="486" y="83" type="curve" smooth="yes"/>
      <point x="486" y="114"/>
      <point x="455" y="114"/>
      <point x="445" y="114" type="curve" smooth="yes"/>
      <point x="424" y="114"/>
      <point x="421" y="112"/>
      <point x="410" y="101" type="curve" smooth="yes"/>
      <point x="377" y="71"/>
      <point x="342" y="61"/>
      <point x="309" y="61" type="curve" smooth="yes"/>
      <point x="203" y="61"/>
      <point x="106" y="165"/>
      <point x="106" y="305" type="curve" smooth="yes"/>
      <point x="106" y="451"/>
      <point x="208" y="550"/>
      <point x="308" y="550" type="curve" smooth="yes"/>
      <point x="351" y="550"/>
      <point x="383" y="524"/>
    </contour>
    <contour>
      <point x="338" y="172" type="curve" smooth="yes"/>
      <point x="295" y="172"/>
      <point x="252" y="228"/>
      <point x="252" y="305" type="curve" smooth="yes"/>
      <point x="252" y="385"/>
      <point x="296" y="439"/>
      <point x="338" y="439" type="curve" smooth="yes"/>
      <point x="381" y="439"/>
      <point x="424" y="383"/>
      <point x="424" y="306" type="curve" smooth="yes"/>
      <point x="424" y="226"/>
      <point x="380" y="172"/>
    </contour>
  </outline>
</glyph>
<glyph name="F" format="2">
  <advance width="531"/>
  <unicode hex="0046"/>
  <outline>
    <contour>
      <point x="177" y="273" type="line"/>
      <point x="307" y="273" type="line"/>
      <point x="307" y="237"/>
      <point x="307" y="217"/>
      <point x="345" y="217" type="curve" smooth="yes"/>
      <point x="383" y="217"/>
      <point x="383" y="241"/>
      <point x="383" y="260" type="curve" smooth="yes"/>
      <point x="383" y="352" type="line" smooth="yes"/>
      <point x="383" y="371"/>
      <point x="383" y="395"/>
      <point x="345" y="395" type="curve" smooth="yes"/>
      <point x="307" y="395"/>
      <point x="307" y="375"/>
      <point x="307" y="339" type="curve"/>
      <point x="177" y="339" type="line"/>
      <point x="177" y="545" type="line"/>
      <point x="419" y="545" type="line"/>
      <point x="419" y="494" type="line" smooth="yes"/>
      <point x="419" y="475"/>
      <point x="419" y="451"/>
      <point x="457" y="451" type="curve" smooth="yes"/>
      <point x="495" y="451"/>
      <point x="495" y="475"/>
      <point x="495" y="494" type="curve" smooth="yes"/>
      <point x="495" y="568" type="line" smooth="yes"/>
      <point x="495" y="602"/>
      <point x="485" y="611"/>
      <point x="452" y="611" type="curve" smooth="yes"/>
      <point x="71" y="611" type="line" smooth="yes"/>
      <point x="55" y="611"/>
      <point x="28" y="611"/>
      <point x="28" y="578" type="curve" smooth="yes"/>
      <point x="28" y="545"/>
      <point x="55" y="545"/>
      <point x="71" y="545" type="curve" smooth="yes"/>
      <point x="101" y="545" type="line"/>
      <point x="101" y="66" type="line"/>
      <point x="71" y="66" type="line" smooth="yes"/>
      <point x="55" y="66"/>
      <point x="28" y="66"/>
      <point x="28" y="33" type="curve" smooth="yes"/>
      <point x="28" y="0"/>
      <point x="55" y="0"/>
      <point x="71" y="0" type="curve" smooth="yes"/>
      <point x="225" y="0" type="line" smooth="yes"/>
      <point x="240" y="0"/>
      <point x="269" y="0"/>
      <point x="269" y="33" type="curve" smooth="yes"/>
      <point x="269" y="66"/>
      <point x="239" y="66"/>
      <point x="225" y="66" type="curve" smooth="yes"/>
      <point x="177" y="66" type="line"/>
    </contour>
  </outline>
</glyph>
<glyph name="J" format="2">
  <advance width="531"/>
  <unicode hex="004A"/>
  <outline>
    <contour>
      <point x="412" y="545" type="line"/>
      <point x="439" y="545" type="line" smooth="yes"/>
      <point x="455" y="545"/>
      <point x="482" y="545"/>
      <point x="482" y="578" type="curve" smooth="yes"/>
      <point x="482" y="611"/>
      <point x="455" y="611"/>
      <point x="439" y="611" type="curve" smooth="yes"/>
      <point x="258" y="611" type="line" smooth="yes"/>
      <point x="243" y="611"/>
      <point x="214" y="611"/>
      <point x="214" y="578" type="curve" smooth="yes"/>
      <point x="214" y="545"/>
      <point x="243" y="545"/>
      <point x="258" y="545" type="curve" smooth="yes"/>
      <point x="336" y="545" type="line"/>
      <point x="336" y="140" type="line" smooth="yes"/>
      <point x="336" y="120"/>
      <point x="336" y="100"/>
      <point x="308" y="79" type="curve" smooth="yes"/>
      <point x="291" y="65"/>
      <point x="269" y="56"/>
      <point x="236" y="56" type="curve" smooth="yes"/>
      <point x="224" y="56"/>
      <point x="182" y="58"/>
      <point x="155" y="76" type="curve"/>
      <point x="159" y="82"/>
      <point x="162" y="86"/>
      <point x="162" y="102" type="curve" smooth="yes"/>
      <point x="162" y="127"/>
      <point x="143" y="150"/>
      <point x="114" y="150" type="curve" smooth="yes"/>
      <point x="85" y="150"/>
      <point x="65" y="130"/>
      <point x="65" y="100" type="curve" smooth="yes"/>
      <point x="65" y="33"/>
      <point x="132" y="-10"/>
      <point x="236" y="-10" type="curve" smooth="yes"/>
      <point x="321" y="-10"/>
      <point x="412" y="37"/>
      <point x="412" y="136" type="curve" smooth="yes"/>
    </contour>
  </outline>
</glyph>
<glyph name="M" format="2">
  <advance width="531"/>
  <unicode hex="004D"/>
  <outline>
    <contour>
      <point x="298" y="396" type="line"/>
      <point x="298" y="395"/>
      <point x="271" y="314"/>
      <point x="265" y="283" type="curve"/>
      <point x="264" y="283" type="line"/>
      <point x="258" y="315"/>
      <point x="253" y="331"/>
      <point x="241" y="368" type="curve" smooth="yes"/>
      <point x="175" y="570" type="line" smooth="yes"/>
      <point x="166" y="598"/>
      <point x="158" y="611"/>
      <point x="118" y="611" type="curve" smooth="yes"/>
      <point x="60" y="611" type="line" smooth="yes"/>
      <point x="45" y="611"/>
      <point x="16" y="611"/>
      <point x="16" y="578" type="curve" smooth="yes"/>
      <point x="16" y="545"/>
      <point x="43" y="545"/>
      <point x="69" y="545" type="curve"/>
      <point x="69" y="66" type="line"/>
      <point x="43" y="66"/>
      <point x="16" y="66"/>
      <point x="16" y="33" type="curve" smooth="yes"/>
      <point x="16" y="0"/>
      <point x="46" y="0"/>
      <point x="60" y="0" type="curve" smooth="yes"/>
      <point x="140" y="0" type="line" smooth="yes"/>
      <point x="155" y="0"/>
      <point x="184" y="0"/>
      <point x="184" y="33" type="curve" smooth="yes"/>
      <point x="184" y="66"/>
      <point x="157" y="66"/>
      <point x="131" y="66" type="curve"/>
      <point x="131" y="530" type="line"/>
      <point x="132" y="530" type="line"/>
      <point x="137" y="505"/>
      <point x="140" y="494"/>
      <point x="150" y="464" type="curve" smooth="yes"/>
      <point x="221" y="243" type="line" smooth="yes"/>
      <point x="224" y="235"/>
      <point x="233" y="204"/>
      <point x="265" y="204" type="curve" smooth="yes"/>
      <point x="274" y="204"/>
      <point x="293" y="209"/>
      <point x="303" y="228" type="curve"/>
      <point x="309" y="241"/>
      <point x="399" y="518"/>
      <point x="399" y="528" type="curve"/>
      <point x="399" y="66" type="line"/>
      <point x="373" y="66"/>
      <point x="346" y="66"/>
      <point x="346" y="33" type="curve" smooth="yes"/>
      <point x="346" y="0"/>
      <point x="376" y="0"/>
      <point x="390" y="0" type="curve" smooth="yes"/>
      <point x="470" y="0" type="line" smooth="yes"/>
      <point x="485" y="0"/>
      <point x="514" y="0"/>
      <point x="514" y="33" type="curve" smooth="yes"/>
      <point x="514" y="66"/>
      <point x="487" y="66"/>
      <point x="461" y="66" type="curve"/>
      <point x="461" y="545" type="line"/>
      <point x="487" y="545"/>
      <point x="514" y="545"/>
      <point x="514" y="578" type="curve" smooth="yes"/>
      <point x="514" y="611"/>
      <point x="484" y="611"/>
      <point x="470" y="611" type="curve" smooth="yes"/>
      <point x="412" y="611" type="line" smooth="yes"/>
      <point x="392" y="611"/>
      <point x="367" y="611"/>
      <point x="355" y="573" type="curve" smooth="yes"/>
    </contour>
  </outline>
</glyph>
<glyph name="O" format="2">
  <advance width="531"/>
  <unicode hex="004F"/>
  <outline>
    <contour>
      <point x="473" y="305" type="curve" smooth="yes"/>
      <point x="473" y="594"/>
      <point x="452" y="621"/>
      <point x="265" y="621" type="curve" smooth="yes"/>
      <point x="79" y="621"/>
      <point x="57" y="594"/>
      <point x="57" y="306" type="curve" smooth="yes"/>
      <point x="57" y="17"/>
      <point x="78" y="-10"/>
      <point x="265" y="-10" type="curve" smooth="yes"/>
      <point x="451" y="-10"/>
      <point x="473" y="17"/>
    </contour>
    <contour>
      <point x="265" y="56" type="curve" smooth="yes"/>
      <point x="180" y="56"/>
      <point x="156" y="77"/>
      <point x="145" y="123" type="curve" smooth="yes"/>
      <point x="133" y="174"/>
      <point x="133" y="256"/>
      <point x="133" y="314" type="curve" smooth="yes"/>
      <point x="133" y="381"/>
      <point x="133" y="440"/>
      <point x="144" y="488" type="curve" smooth="yes"/>
      <point x="157" y="545"/>
      <point x="191" y="555"/>
      <point x="265" y="555" type="curve" smooth="yes"/>
      <point x="348" y="555"/>
      <point x="375" y="541"/>
      <point x="388" y="483" type="curve" smooth="yes"/>
      <point x="397" y="438"/>
      <point x="397" y="368"/>
      <point x="397" y="314" type="curve" smooth="yes"/>
      <point x="397" y="256"/>
      <point x="397" y="181"/>
      <point x="387" y="131" type="curve" smooth="yes"/>
      <point x="376" y="81"/>
      <point x="357" y="56"/>
    </contour>
  </outline>
</glyph>
<glyph name="Q" format="2">
  <advance width="531"/>
  <unicode hex="0051"/>
  <outline>
    <contour>
      <point x="425" y="-139" type="line" smooth="yes"/>
      <point x="439" y="-139"/>
      <point x="459" y="-139"/>
      <point x="459" y="-118" type="curve" smooth="yes"/>
      <point x="459" y="-114"/>
      <point x="459" y="-112"/>
      <point x="445" y="-87" type="curve" smooth="yes"/>
      <point x="432" y="-61"/>
      <point x="438" y="-75"/>
      <point x="396" y="6" type="curve"/>
      <point x="434" y="22"/>
      <point x="456" y="45"/>
      <point x="467" y="140" type="curve" smooth="yes"/>
      <point x="473" y="192"/>
      <point x="473" y="258"/>
      <point x="473" y="305" type="curve" smooth="yes"/>
      <point x="473" y="594"/>
      <point x="452" y="621"/>
      <point x="265" y="621" type="curve" smooth="yes"/>
      <point x="79" y="621"/>
      <point x="57" y="594"/>
      <point x="57" y="306" type="curve" smooth="yes"/>
      <point x="57" y="17"/>
      <point x="78" y="-10"/>
      <point x="265" y="-10" type="curve" smooth="yes"/>
      <point x="300" y="-10"/>
      <point x="302" y="-10"/>
      <point x="315" y="-9" type="curve"/>
      <point x="330" y="-41"/>
      <point x="347" y="-73"/>
      <point x="364" y="-104" type="curve" smooth="yes"/>
      <point x="383" y="-138"/>
      <point x="384" y="-139"/>
      <point x="412" y="-139" type="curve" smooth="yes"/>
    </contour>
    <contour>
      <point x="258" y="56" type="line" smooth="yes"/>
      <point x="165" y="56"/>
      <point x="150" y="87"/>
      <point x="141" y="139" type="curve" smooth="yes"/>
      <point x="133" y="186"/>
      <point x="133" y="260"/>
      <point x="133" y="305" type="curve" smooth="yes"/>
      <point x="133" y="361"/>
      <point x="133" y="432"/>
      <point x="142" y="479" type="curve" smooth="yes"/>
      <point x="154" y="535"/>
      <point x="175" y="555"/>
      <point x="265" y="555" type="curve" smooth="yes"/>
      <point x="358" y="555"/>
      <point x="378" y="533"/>
      <point x="389" y="472" type="curve" smooth="yes"/>
      <point x="397" y="425"/>
      <point x="397" y="351"/>
      <point x="397" y="306" type="curve" smooth="yes"/>
      <point x="397" y="262"/>
      <point x="397" y="224"/>
      <point x="394" y="178" type="curve" smooth="yes"/>
      <point x="388" y="97"/>
      <point x="369" y="83"/>
      <point x="359" y="76" type="curve"/>
      <point x="317" y="151"/>
      <point x="326" y="139"/>
      <point x="315" y="157" type="curve" smooth="yes"/>
      <point x="307" y="170"/>
      <point x="306" y="171"/>
      <point x="285" y="171" type="curve" smooth="yes"/>
      <point x="271" y="171" type="line" smooth="yes"/>
      <point x="257" y="171"/>
      <point x="236" y="171"/>
      <point x="236" y="150" type="curve" smooth="yes"/>
      <point x="236" y="141"/>
      <point x="252" y="114"/>
      <point x="253" y="112" type="curve"/>
      <point x="264" y="94"/>
      <point x="264" y="92"/>
      <point x="281" y="56" type="curve"/>
    </contour>
  </outline>
</glyph>
<glyph name="V" format="2">
  <advance width="531"/>
  <unicode hex="0056"/>
  <outline>
    <contour>
      <point x="454" y="545" type="line"/>
      <point x="485" y="545"/>
      <point x="511" y="545"/>
      <point x="511" y="578" type="curve" smooth="yes"/>
      <point x="511" y="611"/>
      <point x="482" y="611"/>
      <point x="467" y="611" type="curve" smooth="yes"/>
      <point x="364" y="611" type="line" smooth="yes"/>
      <point x="349" y="611"/>
      <point x="321" y="611"/>
      <point x="321" y="578" type="curve" smooth="yes"/>
      <point x="321" y="545"/>
      <point x="346" y="545"/>
      <point x="376" y="545" type="curve"/>
      <point x="305" y="261" type="line" smooth="yes"/>
      <point x="292" y="207"/>
      <point x="271" y="123"/>
      <point x="266" y="80" type="curve"/>
      <point x="265" y="80" type="line"/>
      <point x="260" y="122"/>
      <point x="239" y="205"/>
      <point x="226" y="257" type="curve" smooth="yes"/>
      <point x="154" y="545" type="line"/>
      <point x="184" y="545"/>
      <point x="209" y="545"/>
      <point x="209" y="578" type="curve" smooth="yes"/>
      <point x="209" y="611"/>
      <point x="181" y="611"/>
      <point x="166" y="611" type="curve" smooth="yes"/>
      <point x="63" y="611" type="line" smooth="yes"/>
      <point x="48" y="611"/>
      <point x="19" y="611"/>
      <point x="19" y="578" type="curve" smooth="yes"/>
      <point x="19" y="545"/>
      <point x="45" y="545"/>
      <point x="76" y="545" type="curve"/>
      <point x="206" y="29" type="line" smooth="yes"/>
      <point x="216" y="-10"/>
      <point x="238" y="-10"/>
      <point x="265" y="-10" type="curve" smooth="yes"/>
      <point x="292" y="-10"/>
      <point x="314" y="-10"/>
      <point x="324" y="29" type="curve" smooth="yes"/>
    </contour>
  </outline>
</glyph>
<glyph name="W" format="2">
  <advance width="531"/>
  <unicode hex="0057"/>
  <outline>
    <contour>
      <point x="478" y="529" type="line" smooth="yes"/>
      <point x="480" y="543"/>
      <point x="481" y="544"/>
      <point x="489" y="545" type="curve" smooth="yes"/>
      <point x="505" y="547"/>
      <point x="518" y="558"/>
      <point x="518" y="578" type="curve" smooth="yes"/>
      <point x="518" y="611"/>
      <point x="490" y="611"/>
      <point x="475" y="611" type="curve" smooth="yes"/>
      <point x="396" y="611" type="line" smooth="yes"/>
      <point x="381" y="611"/>
      <point x="353" y="611"/>
      <point x="353" y="578" type="curve" smooth="yes"/>
      <point x="353" y="545"/>
      <point x="381" y="545"/>
      <point x="396" y="545" type="curve" smooth="yes"/>
      <point x="418" y="545" type="line"/>
      <point x="377" y="236" type="line" smooth="yes"/>
      <point x="370" y="183"/>
      <point x="362" y="125"/>
      <point x="359" y="83" type="curve"/>
      <point x="356" y="157"/>
      <point x="310" y="340"/>
      <point x="308" y="343" type="curve"/>
      <point x="298" y="365"/>
      <point x="281" y="367"/>
      <point x="265" y="367" type="curve" smooth="yes"/>
      <point x="256" y="367"/>
      <point x="235" y="367"/>
      <point x="224" y="348" type="curve" smooth="yes"/>
      <point x="218" y="338"/>
      <point x="174" y="153"/>
      <point x="171" y="83" type="curve"/>
      <point x="170" y="83" type="line"/>
      <point x="168" y="115"/>
      <point x="165" y="141"/>
      <point x="160" y="179" type="curve" smooth="yes"/>
      <point x="112" y="545" type="line"/>
      <point x="134" y="545" type="line" smooth="yes"/>
      <point x="149" y="545"/>
      <point x="177" y="545"/>
      <point x="177" y="578" type="curve" smooth="yes"/>
      <point x="177" y="611"/>
      <point x="149" y="611"/>
      <point x="134" y="611" type="curve" smooth="yes"/>
      <point x="55" y="611" type="line" smooth="yes"/>
      <point x="40" y="611"/>
      <point x="12" y="611"/>
      <point x="12" y="578" type="curve" smooth="yes"/>
      <point x="12" y="550"/>
      <point x="33" y="545"/>
      <point x="49" y="545" type="curve"/>
      <point x="52" y="529" type="line"/>
      <point x="121" y="31" type="line" smooth="yes"/>
      <point x="124" y="11"/>
      <point x="127" y="-10"/>
      <point x="165" y="-10" type="curve" smooth="yes"/>
      <point x="174" y="-10"/>
      <point x="193" y="-10"/>
      <point x="205" y="9" type="curve" smooth="yes"/>
      <point x="212" y="21"/>
      <point x="261" y="245"/>
      <point x="264" y="285" type="curve"/>
      <point x="265" y="285" type="line"/>
      <point x="269" y="242"/>
      <point x="318" y="22"/>
      <point x="324" y="10" type="curve" smooth="yes"/>
      <point x="335" y="-10"/>
      <point x="356" y="-10"/>
      <point x="365" y="-10" type="curve" smooth="yes"/>
      <point x="403" y="-10"/>
      <point x="406" y="12"/>
      <point x="409" y="30" type="curve" smooth="yes"/>
    </contour>
  </outline>
</glyph>
<glyph name="Y" format="2">
  <advance width="531"/>
  <unicode hex="0059"/>
  <outline>
    <contour>
      <point x="448" y="545" type="line"/>
      <point x="466" y="545" type="line" smooth="yes"/>
      <point x="481" y="545"/>
      <point x="510" y="545"/>
      <point x="510" y="578" type="curve" smooth="yes"/>
      <point x="510" y="611"/>
      <point x="480" y="611"/>
      <point x="466" y="611" type="curve" smooth="yes"/>
      <point x="362" y="611" type="line" smooth="yes"/>
      <point x="346" y="611"/>
      <point x="319" y="611"/>
      <point x="319" y="578" type="curve" smooth="yes"/>
      <point x="319" y="545"/>
      <point x="345" y="545"/>
      <point x="363" y="545" type="curve"/>
      <point x="362" y="544"/>
      <point x="346" y="510"/>
      <point x="338" y="492" type="curve" smooth="yes"/>
      <point x="307" y="426"/>
      <point x="273" y="355"/>
      <point x="265" y="323" type="curve"/>
      <point x="264" y="323" type="line"/>
      <point x="257" y="353"/>
      <point x="230" y="411"/>
      <point x="194" y="489" type="curve" smooth="yes"/>
      <point x="167" y="545" type="line"/>
      <point x="185" y="545"/>
      <point x="211" y="545"/>
      <point x="211" y="578" type="curve" smooth="yes"/>
      <point x="211" y="611"/>
      <point x="184" y="611"/>
      <point x="168" y="611" type="curve" smooth="yes"/>
      <point x="64" y="611" type="line" smooth="yes"/>
      <point x="49" y="611"/>
      <point x="20" y="611"/>
      <point x="20" y="578" type="curve" smooth="yes"/>
      <point x="20" y="545"/>
      <point x="50" y="545"/>
      <point x="64" y="545" type="curve" smooth="yes"/>
      <point x="82" y="545" type="line"/>
      <point x="227" y="244" type="line"/>
      <point x="227" y="66" type="line"/>
      <point x="206" y="66" type="line" smooth="yes"/>
      <point x="191" y="66"/>
      <point x="162" y="66"/>
      <point x="162" y="33" type="curve" smooth="yes"/>
      <point x="162" y="0"/>
      <point x="191" y="0"/>
      <point x="206" y="0" type="curve" smooth="yes"/>
      <point x="324" y="0" type="line" smooth="yes"/>
      <point x="339" y="0"/>
      <point x="368" y="0"/>
      <point x="368" y="33" type="curve" smooth="yes"/>
      <point x="368" y="66"/>
      <point x="339" y="66"/>
      <point x="324" y="66" type="curve" smooth="yes"/>
      <point x="303" y="66" type="line"/>
      <point x="303" y="244" type="line"/>
    </contour>
  </outline>
</glyph>
<glyph name="bracketleft" format="2">
  <advance width="531"/>
  <unicode hex="005B"/>
  <outline>
    <contour>
      <point x="446" y="628" type="line" smooth="yes"/>
      <point x="461" y="628"/>
      <point x="489" y="628"/>
      <point x="489" y="661" type="curve" smooth="yes"/>
      <point x="489" y="694"/>
      <point x="461" y="694"/>
      <point x="446" y="694" type="curve" smooth="yes"/>
      <point x="262" y="694" type="line" smooth="yes"/>
      <point x="229" y="694"/>
      <point x="219" y="686"/>
      <point x="219" y="651" type="curve" smooth="yes"/>
      <point x="219" y="-40" type="line" smooth="yes"/>
      <point x="219" y="-74"/>
      <point x="229" y="-83"/>
      <point x="262" y="-83" type="curve" smooth="yes"/>
      <point x="446" y="-83" type="line" smooth="yes"/>
      <point x="461" y="-83"/>
      <point x="489" y="-83"/>
      <point x="489" y="-50" type="curve" smooth="yes"/>
      <point x="489" y="-17"/>
      <point x="461" y="-17"/>
      <point x="446" y="-17" type="curve" smooth="yes"/>
      <point x="295" y="-17" type="line"/>
      <point x="295" y="628" type="line"/>
    </contour>
  </outline>
</glyph>
<glyph name="b" format="2">
  <advance width="531"/>
  <unicode hex="0062"/>
  <outline>
    <contour>
      <point x="171" y="568" type="line" smooth="yes"/>
      <point x="171" y="602"/>
      <point x="161" y="611"/>
      <point x="128" y="611" type="curve" smooth="yes"/>
      <point x="54" y="611" type="line" smooth="yes"/>
      <point x="38" y="611"/>
      <point x="11" y="611"/>
      <point x="11" y="578" type="curve" smooth="yes"/>
      <point x="11" y="545"/>
      <point x="38" y="545"/>
      <point x="54" y="545" type="curve" smooth="yes"/>
      <point x="95" y="545" type="line"/>
      <point x="95" y="43" type="line" smooth="yes"/>
      <point x="95" y="25"/>
      <point x="95" y="0"/>
      <point x="133" y="0" type="curve" smooth="yes"/>
      <point x="171" y="0"/>
      <point x="171" y="24"/>
      <point x="171" y="42" type="curve"/>
      <point x="202" y="12"/>
      <point x="241" y="-5"/>
      <point x="285" y="-5" type="curve" smooth="yes"/>
      <point x="396" y="-5"/>
      <point x="496" y="89"/>
      <point x="496" y="216" type="curve" smooth="yes"/>
      <point x="496" y="337"/>
      <point x="407" y="436"/>
      <point x="295" y="436" type="curve" smooth="yes"/>
      <point x="248" y="436"/>
      <point x="207" y="419"/>
      <point x="171" y="391" type="curve"/>
    </contour>
    <contour>
      <point x="171" y="263" type="line" smooth="yes"/>
      <point x="171" y="321"/>
      <point x="230" y="370"/>
      <point x="291" y="370" type="curve" smooth="yes"/>
      <point x="361" y="370"/>
      <point x="420" y="302"/>
      <point x="420" y="216" type="curve" smooth="yes"/>
      <point x="420" y="125"/>
      <point x="352" y="61"/>
      <point x="282" y="61" type="curve" smooth="yes"/>
      <point x="208" y="61"/>
      <point x="171" y="144"/>
      <point x="171" y="194" type="curve" smooth="yes"/>
    </contour>
  </outline>
</glyph>
<glyph name="c" format="2">
  <advance width="531"/>
  <unicode hex="0063"/>
  <outline>
    <contour>
      <point x="470" y="108" type="curve" smooth="yes"/>
      <point x="470" y="130"/>
      <point x="453" y="139"/>
      <point x="432" y="139" type="curve" smooth="yes"/>
      <point x="418" y="139"/>
      <point x="404" y="139"/>
      <point x="395" y="116" type="curve" smooth="yes"/>
      <point x="377" y="72"/>
      <point x="337" y="61"/>
      <point x="301" y="61" type="curve" smooth="yes"/>
      <point x="218" y="61"/>
      <point x="148" y="129"/>
      <point x="148" y="216" type="curve" smooth="yes"/>
      <point x="148" y="267"/>
      <point x="180" y="373"/>
      <point x="307" y="373" type="curve" smooth="yes"/>
      <point x="336" y="373"/>
      <point x="353" y="371"/>
      <point x="358" y="370" type="curve"/>
      <point x="361" y="369"/>
      <point x="362" y="368"/>
      <point x="362" y="359" type="curve"/>
      <point x="364" y="330"/>
      <point x="385" y="313"/>
      <point x="410" y="313" type="curve" smooth="yes"/>
      <point x="440" y="313"/>
      <point x="459" y="335"/>
      <point x="459" y="362" type="curve" smooth="yes"/>
      <point x="459" y="439"/>
      <point x="355" y="439"/>
      <point x="309" y="439" type="curve" smooth="yes"/>
      <point x="131" y="439"/>
      <point x="72" y="301"/>
      <point x="72" y="216" type="curve" smooth="yes"/>
      <point x="72" y="96"/>
      <point x="168" y="-5"/>
      <point x="296" y="-5" type="curve" smooth="yes"/>
      <point x="438" y="-5"/>
      <point x="470" y="91"/>
    </contour>
  </outline>
</glyph>
<glyph name="d" format="2">
  <advance width="531"/>
  <unicode hex="0064"/>
  <outline>
    <contour>
      <point x="435" y="568" type="line" smooth="yes"/>
      <point x="435" y="602"/>
      <point x="425" y="611"/>
      <point x="392" y="611" type="curve" smooth="yes"/>
      <point x="318" y="611" type="line" smooth="yes"/>
      <point x="302" y="611"/>
      <point x="275" y="611"/>
      <point x="275" y="578" type="curve" smooth="yes"/>
      <point x="275" y="545"/>
      <point x="302" y="545"/>
      <point x="318" y="545" type="curve" smooth="yes"/>
      <point x="359" y="545" type="line"/>
      <point x="359" y="395" type="line"/>
      <point x="313" y="431"/>
      <point x="271" y="436"/>
      <point x="244" y="436" type="curve" smooth="yes"/>
      <point x="133" y="436"/>
      <point x="34" y="342"/>
      <point x="34" y="215" type="curve" smooth="yes"/>
      <point x="34" y="93"/>
      <point x="125" y="-5"/>
      <point x="235" y="-5" type="curve" smooth="yes"/>
      <point x="288" y="-5"/>
      <point x="330" y="19"/>
      <point x="359" y="47" type="curve"/>
      <point x="359" y="19"/>
      <point x="359" y="0"/>
      <point x="402" y="0" type="curve" smooth="yes"/>
      <point x="476" y="0" type="line" smooth="yes"/>
      <point x="492" y="0"/>
      <point x="519" y="0"/>
      <point x="519" y="33" type="curve" smooth="yes"/>
      <point x="519" y="66"/>
      <point x="492" y="66"/>
      <point x="476" y="66" type="curve" smooth="yes"/>
      <point x="435" y="66" type="line"/>
    </contour>
    <contour>
      <point x="359" y="197" type="line" smooth="yes"/>
      <point x="359" y="140"/>
      <point x="313" y="61"/>
      <point x="238" y="61" type="curve" smooth="yes"/>
      <point x="171" y="61"/>
      <point x="110" y="127"/>
      <point x="110" y="215" type="curve" smooth="yes"/>
      <point x="110" y="304"/>
      <point x="176" y="370"/>
      <point x="249" y="370" type="curve" smooth="yes"/>
      <point x="308" y="370"/>
      <point x="359" y="319"/>
      <point x="359" y="264" type="curve" smooth="yes"/>
    </contour>
  </outline>
</glyph>
<glyph name="q" format="2">
  <advance width="531"/>
  <unicode hex="0071"/>
  <outline>
    <contour>
      <point x="456" y="393" type="line" smooth="yes"/>
      <point x="456" y="412"/>
      <point x="456" y="436"/>
      <point x="418" y="436" type="curve" smooth="yes"/>
      <point x="380" y="436"/>
      <point x="380" y="414"/>
      <point x="380" y="386" type="curve"/>
      <point x="352" y="413"/>
      <point x="311" y="436"/>
      <point x="258" y="436" type="curve" smooth="yes"/>
      <point x="138" y="436"/>
      <point x="37" y="339"/>
      <point x="37" y="215" type="curve" smooth="yes"/>
      <point x="37" y="93"/>
      <point x="133" y="-5"/>
      <point x="247" y="-5" type="curve" smooth="yes"/>
      <point x="328" y="-5"/>
      <point x="376" y="46"/>
      <point x="380" y="50" type="curve"/>
      <point x="380" y="-156" type="line"/>
      <point x="335" y="-156" type="line" smooth="yes"/>
      <point x="320" y="-156"/>
      <point x="291" y="-156"/>
      <point x="291" y="-189" type="curve" smooth="yes"/>
      <point x="291" y="-222"/>
      <point x="321" y="-222"/>
      <point x="335" y="-222" type="curve" smooth="yes"/>
      <point x="501" y="-222" type="line" smooth="yes"/>
      <point x="516" y="-222"/>
      <point x="545" y="-222"/>
      <point x="545" y="-189" type="curve" smooth="yes"/>
      <point x="545" y="-156"/>
      <point x="515" y="-156"/>
      <point x="501" y="-156" type="curve" smooth="yes"/>
      <point x="456" y="-156" type="line"/>
    </contour>
    <contour>
      <point x="380" y="194" type="line" smooth="yes"/>
      <point x="380" y="134"/>
      <point x="327" y="61"/>
      <point x="251" y="61" type="curve" smooth="yes"/>
      <point x="177" y="61"/>
      <point x="113" y="129"/>
      <point x="113" y="215" type="curve" smooth="yes"/>
      <point x="113" y="305"/>
      <point x="185" y="370"/>
      <point x="261" y="370" type="curve" smooth="yes"/>
      <point x="336" y="370"/>
      <point x="380" y="295"/>
      <point x="380" y="233" type="curve" smooth="yes"/>
    </contour>
  </outline>
</glyph>
<glyph name="s" format="2">
  <advance width="531"/>
  <unicode hex="0073"/>
  <outline>
    <contour>
      <point x="433" y="396" type="line" smooth="yes"/>
      <point x="433" y="411"/>
      <point x="433" y="439"/>
      <point x="400" y="439" type="curve" smooth="yes"/>
      <point x="377" y="439"/>
      <point x="372" y="427"/>
      <point x="369" y="421" type="curve"/>
      <point x="328" y="439"/>
      <point x="288" y="439"/>
      <point x="265" y="439" type="curve" smooth="yes"/>
      <point x="95" y="439"/>
      <point x="73" y="355"/>
      <point x="73" y="320" type="curve" smooth="yes"/>
      <point x="73" y="227"/>
      <point x="178" y="211"/>
      <point x="266" y="197" type="curve" smooth="yes"/>
      <point x="320" y="188"/>
      <point x="397" y="176"/>
      <point x="397" y="127" type="curve" smooth="yes"/>
      <point x="397" y="91"/>
      <point x="359" y="61"/>
      <point x="272" y="61" type="curve" smooth="yes"/>
      <point x="210" y="61"/>
      <point x="170" y="82"/>
      <point x="149" y="142" type="curve" smooth="yes"/>
      <point x="144" y="158"/>
      <point x="140" y="170"/>
      <point x="111" y="170" type="curve" smooth="yes"/>
      <point x="73" y="170"/>
      <point x="73" y="145"/>
      <point x="73" y="127" type="curve" smooth="yes"/>
      <point x="73" y="38" type="line" smooth="yes"/>
      <point x="73" y="23"/>
      <point x="73" y="-5"/>
      <point x="106" y="-5" type="curve" smooth="yes"/>
      <point x="116" y="-5"/>
      <point x="134" y="-2"/>
      <point x="144" y="28" type="curve"/>
      <point x="195" y="-5"/>
      <point x="251" y="-5"/>
      <point x="271" y="-5" type="curve" smooth="yes"/>
      <point x="441" y="-5"/>
      <point x="463" y="89"/>
      <point x="463" y="126" type="curve" smooth="yes"/>
      <point x="463" y="150"/>
      <point x="455" y="186"/>
      <point x="417" y="215" type="curve" smooth="yes"/>
      <point x="377" y="245"/>
      <point x="338" y="251"/>
      <point x="268" y="263" type="curve" smooth="yes"/>
      <point x="200" y="274"/>
      <point x="139" y="284"/>
      <point x="139" y="320" type="curve" smooth="yes"/>
      <point x="139" y="340"/>
      <point x="163" y="373"/>
      <point x="263" y="373" type="curve" smooth="yes"/>
      <point x="353" y="373"/>
      <point x="356" y="341"/>
      <point x="357" y="323" type="curve" smooth="yes"/>
      <point x="359" y="291"/>
      <point x="384" y="291"/>
      <point x="395" y="291" type="curve" smooth="yes"/>
      <point x="433" y="291"/>
      <point x="433" y="315"/>
      <point x="433" y="334" type="curve" smooth="yes"/>
    </contour>
  </outline>
</glyph>
<glyph name="u" format="2">
  <advance width="531"/>
  <unicode hex="0075"/>
  <outline>
    <contour>
      <point x="435" y="388" type="line" smooth="yes"/>
      <point x="435" y="422"/>
      <point x="425" y="431"/>
      <point x="392" y="431" type="curve" smooth="yes"/>
      <point x="318" y="431" type="line" smooth="yes"/>
      <point x="302" y="431"/>
      <point x="275" y="431"/>
      <point x="275" y="398" type="curve" smooth="yes"/>
      <point x="275" y="365"/>
      <point x="302" y="365"/>
      <point x="318" y="365" type="curve" smooth="yes"/>
      <point x="359" y="365" type="line"/>
      <point x="359" y="155" type="line" smooth="yes"/>
      <point x="359" y="76"/>
      <point x="286" y="61"/>
      <point x="248" y="61" type="curve" smooth="yes"/>
      <point x="171" y="61"/>
      <point x="171" y="90"/>
      <point x="171" y="119" type="curve" smooth="yes"/>
      <point x="171" y="388" type="line" smooth="yes"/>
      <point x="171" y="422"/>
      <point x="161" y="431"/>
      <point x="128" y="431" type="curve" smooth="yes"/>
      <point x="54" y="431" type="line" smooth="yes"/>
      <point x="38" y="431"/>
      <point x="11" y="431"/>
      <point x="11" y="398" type="curve" smooth="yes"/>
      <point x="11" y="365"/>
      <point x="38" y="365"/>
      <point x="54" y="365" type="curve" smooth="yes"/>
      <point x="95" y="365" type="line"/>
      <point x="95" y="116" type="line" smooth="yes"/>
      <point x="95" y="24"/>
      <point x="158" y="-5"/>
      <point x="242" y="-5" type="curve" smooth="yes"/>
      <point x="295" y="-5"/>
      <point x="333" y="10"/>
      <point x="358" y="29" type="curve"/>
      <point x="363" y="0"/>
      <point x="387" y="0"/>
      <point x="402" y="0" type="curve" smooth="yes"/>
      <point x="476" y="0" type="line" smooth="yes"/>
      <point x="492" y="0"/>
      <point x="519" y="0"/>
      <point x="519" y="33" type="curve" smooth="yes"/>
      <point x="519" y="66"/>
      <point x="492" y="66"/>
      <point x="476" y="66" type="curve" smooth="yes"/>
      <point x="435" y="66" type="line"/>
    </contour>
  </outline>
</glyph>
<glyph name="y" format="2">
  <advance width="531"/>
  <unicode hex="0079"/>
  <outline>
    <contour>
      <point x="434" y="365" type="line"/>
      <point x="451" y="365"/>
      <point x="478" y="365"/>
      <point x="484" y="367" type="curve" smooth="yes"/>
      <point x="495" y="371"/>
      <point x="505" y="380"/>
      <point x="505" y="398" type="curve" smooth="yes"/>
      <point x="505" y="431"/>
      <point x="476" y="431"/>
      <point x="459" y="431" type="curve" smooth="yes"/>
      <point x="348" y="431" type="line" smooth="yes"/>
      <point x="331" y="431"/>
      <point x="302" y="431"/>
      <point x="302" y="398" type="curve" smooth="yes"/>
      <point x="302" y="395"/>
      <point x="303" y="376"/>
      <point x="320" y="368" type="curve" smooth="yes"/>
      <point x="327" y="365"/>
      <point x="352" y="365"/>
      <point x="369" y="365" type="curve"/>
      <point x="357" y="332"/>
      <point x="334" y="261"/>
      <point x="318" y="215" type="curve" smooth="yes"/>
      <point x="303" y="169"/>
      <point x="281" y="103"/>
      <point x="275" y="78" type="curve"/>
      <point x="274" y="78" type="line"/>
      <point x="271" y="92"/>
      <point x="265" y="110"/>
      <point x="224" y="218" type="curve" smooth="yes"/>
      <point x="166" y="365" type="line"/>
      <point x="181" y="365"/>
      <point x="204" y="365"/>
      <point x="211" y="368" type="curve"/>
      <point x="220" y="371"/>
      <point x="230" y="381"/>
      <point x="230" y="398" type="curve" smooth="yes"/>
      <point x="230" y="431"/>
      <point x="201" y="431"/>
      <point x="184" y="431" type="curve" smooth="yes"/>
      <point x="73" y="431" type="line" smooth="yes"/>
      <point x="56" y="431"/>
      <point x="27" y="431"/>
      <point x="27" y="398" type="curve" smooth="yes"/>
      <point x="27" y="393"/>
      <point x="29" y="373"/>
      <point x="48" y="367" type="curve" smooth="yes"/>
      <point x="54" y="365"/>
      <point x="82" y="365"/>
      <point x="99" y="365" type="curve"/>
      <point x="239" y="13" type="line" smooth="yes"/>
      <point x="242" y="5"/>
      <point x="243" y="2"/>
      <point x="243" y="0" type="curve" smooth="yes"/>
      <point x="243" y="-3"/>
      <point x="217" y="-83"/>
      <point x="208" y="-101" type="curve" smooth="yes"/>
      <point x="191" y="-135"/>
      <point x="165" y="-158"/>
      <point x="128" y="-161" type="curve"/>
      <point x="137" y="-142" type="line"/>
      <point x="136" y="-110"/>
      <point x="114" y="-95"/>
      <point x="90" y="-95" type="curve" smooth="yes"/>
      <point x="63" y="-95"/>
      <point x="43" y="-113"/>
      <point x="43" y="-143" type="curve" smooth="yes"/>
      <point x="43" y="-183"/>
      <point x="75" y="-227"/>
      <point x="127" y="-227" type="curve" smooth="yes"/>
      <point x="206" y="-227"/>
      <point x="258" y="-150"/>
      <point x="281" y="-83" type="curve" smooth="yes"/>
    </contour>
  </outline>
</glyph>
<glyph name="braceleft" format="2">
  <advance width="531"/>
  <unicode hex="007B"/>
  <outline>
    <contour>
      <point x="303" y="207" type="line" smooth="yes"/>
      <point x="303" y="224"/>
      <point x="303" y="277"/>
      <point x="249" y="305" type="curve"/>
      <point x="303" y="335"/>
      <point x="303" y="387"/>
      <point x="303" y="404" type="curve" smooth="yes"/>
      <point x="303" y="563" type="line" smooth="yes"/>
      <point x="303" y="587"/>
      <point x="303" y="626"/>
      <point x="434" y="628" type="curve" smooth="yes"/>
      <point x="446" y="628"/>
      <point x="474" y="628"/>
      <point x="474" y="661" type="curve" smooth="yes"/>
      <point x="474" y="694"/>
      <point x="446" y="694"/>
      <point x="430" y="694" type="curve" smooth="yes"/>
      <point x="416" y="694"/>
      <point x="344" y="694"/>
      <point x="292" y="670" type="curve" smooth="yes"/>
      <point x="227" y="640"/>
      <point x="227" y="587"/>
      <point x="227" y="567" type="curve" smooth="yes"/>
      <point x="227" y="408" type="line" smooth="yes"/>
      <point x="227" y="386"/>
      <point x="227" y="369"/>
      <point x="192" y="354" type="curve" smooth="yes"/>
      <point x="168" y="344"/>
      <point x="131" y="339"/>
      <point x="101" y="339" type="curve" smooth="yes"/>
      <point x="85" y="339"/>
      <point x="56" y="339"/>
      <point x="56" y="305" type="curve" smooth="yes"/>
      <point x="56" y="272"/>
      <point x="86" y="272"/>
      <point x="98" y="272" type="curve" smooth="yes"/>
      <point x="227" y="271"/>
      <point x="227" y="226"/>
      <point x="227" y="203" type="curve" smooth="yes"/>
      <point x="227" y="44" type="line" smooth="yes"/>
      <point x="227" y="24"/>
      <point x="227" y="-28"/>
      <point x="291" y="-58" type="curve" smooth="yes"/>
      <point x="343" y="-83"/>
      <point x="417" y="-83"/>
      <point x="430" y="-83" type="curve" smooth="yes"/>
      <point x="446" y="-83"/>
      <point x="474" y="-83"/>
      <point x="474" y="-50" type="curve" smooth="yes"/>
      <point x="474" y="-18"/>
      <point x="447" y="-17"/>
      <point x="433" y="-17" type="curve" smooth="yes"/>
      <point x="303" y="-15"/>
      <point x="303" y="24"/>
      <point x="303" y="48" type="curve" smooth="yes"/>
    </contour>
  </outline>
</glyph>
<glyph name="bar" format="2">
  <advance width="531"/>
  <unicode hex="007C"/>
  <outline>
    <contour>
      <point x="304" y="644" type="line" smooth="yes"/>
      <point x="304" y="655"/>
      <point x="304" y="694"/>
      <point x="266" y="694" type="curve" smooth="yes"/>
      <point x="227" y="694"/>
      <point x="227" y="656"/>
      <point x="227" y="644" type="curve" smooth="yes"/>
      <point x="227" y="-33" type="line" smooth="yes"/>
      <point x="227" y="-44"/>
      <point x="227" y="-83"/>
      <point x="265" y="-83" type="curve" smooth="yes"/>
      <point x="304" y="-83"/>
      <point x="304" y="-45"/>
      <point x="304" y="-33" type="curve" smooth="yes"/>
    </contour>
  </outline>
</glyph>
<glyph name="braceright" format="2">
  <advance width="531"/>
  <unicode hex="007D"/>
  <outline>
    <contour>
      <point x="303" y="203" type="line" smooth="yes"/>
      <point x="303" y="225"/>
      <point x="303" y="242"/>
      <point x="337" y="257" type="curve" smooth="yes"/>
      <point x="360" y="266"/>
      <point x="397" y="272"/>
      <point x="428" y="272" type="curve" smooth="yes"/>
      <point x="444" y="272"/>
      <point x="474" y="272"/>
      <point x="474" y="305" type="curve" smooth="yes"/>
      <point x="474" y="339"/>
      <point x="445" y="339"/>
      <point x="431" y="339" type="curve" smooth="yes"/>
      <point x="417" y="339"/>
      <point x="374" y="340"/>
      <point x="340" y="353" type="curve" smooth="yes"/>
      <point x="303" y="368"/>
      <point x="303" y="386"/>
      <point x="303" y="408" type="curve" smooth="yes"/>
      <point x="303" y="567" type="line" smooth="yes"/>
      <point x="303" y="587"/>
      <point x="303" y="639"/>
      <point x="239" y="669" type="curve" smooth="yes"/>
      <point x="187" y="694"/>
      <point x="112" y="694"/>
      <point x="101" y="694" type="curve" smooth="yes"/>
      <point x="85" y="694"/>
      <point x="56" y="694"/>
      <point x="56" y="661" type="curve" smooth="yes"/>
      <point x="56" y="629"/>
      <point x="83" y="628"/>
      <point x="97" y="628" type="curve" smooth="yes"/>
      <point x="227" y="626"/>
      <point x="227" y="587"/>
      <point x="227" y="563" type="curve" smooth="yes"/>
      <point x="227" y="404" type="line" smooth="yes"/>
      <point x="227" y="387"/>
      <point x="227" y="334"/>
      <point x="281" y="306" type="curve"/>
      <point x="227" y="276"/>
      <point x="227" y="224"/>
      <point x="227" y="207" type="curve" smooth="yes"/>
      <point x="227" y="48" type="line" smooth="yes"/>
      <point x="227" y="24"/>
      <point x="227" y="-15"/>
      <point x="96" y="-17" type="curve"/>
      <point x="84" y="-17"/>
      <point x="56" y="-17"/>
      <point x="56" y="-50" type="curve" smooth="yes"/>
      <point x="56" y="-83"/>
      <point x="85" y="-83"/>
      <point x="101" y="-83" type="curve" smooth="yes"/>
      <point x="131" y="-83"/>
      <point x="201" y="-80"/>
      <point x="247" y="-55" type="curve" smooth="yes"/>
      <point x="303" y="-24"/>
      <point x="303" y="24"/>
      <point x="303" y="44" type="curve" smooth="yes"/>
    </contour>
  </outline>
</glyph>
<glyph name="asciitilde" format="2">
  <advance width="531"/>
  <unicode hex="007E"/>
  <outline>
    <contour>
      <point x="441" y="577" type="curve" smooth="yes"/>
      <point x="441" y="594"/>
      <point x="426" y="611"/>
      <point x="407" y="611" type="curve" smooth="yes"/>
      <point x="394" y="611"/>
      <point x="386" y="603"/>
      <point x="378" y="595" type="curve" smooth="yes"/>
      <point x="363" y="581"/>
      <point x="337" y="557"/>
      <point x="314" y="557" type="curve" smooth="yes"/>
      <point x="307" y="557"/>
      <point x="301" y="563"/>
      <point x="290" y="574" type="curve" smooth="yes"/>
      <point x="273" y="591"/>
      <point x="253" y="611"/>
      <point x="219" y="611" type="curve" smooth="yes"/>
      <point x="198" y="611"/>
      <point x="173" y="603"/>
      <point x="140" y="578" type="curve" smooth="yes"/>
      <point x="120" y="563"/>
      <point x="89" y="540"/>
      <point x="89" y="520" type="curve" smooth="yes"/>
      <point x="89" y="503"/>
      <point x="104" y="486"/>
      <point x="123" y="486" type="curve" smooth="yes"/>
      <point x="136" y="486"/>
      <point x="144" y="494"/>
      <point x="152" y="502" type="curve" smooth="yes"/>
      <point x="167" y="516"/>
      <point x="193" y="540"/>
      <point x="216" y="540" type="curve" smooth="yes"/>
      <point x="223" y="540"/>
      <point x="229" y="534"/>
      <point x="240" y="523" type="curve" smooth="yes"/>
      <point x="257" y="506"/>
      <point x="277" y="486"/>
      <point x="311" y="486" type="curve" smooth="yes"/>
      <point x="332" y="486"/>
      <point x="357" y="494"/>
      <point x="390" y="519" type="curve" smooth="yes"/>
      <point x="410" y="534"/>
      <point x="441" y="557"/>
    </contour>
  </outline>
</glyph>
<glyph name="exclamdown" format="2">
  <advance width="531"/>
  <unicode hex="00A1"/>
  <outline>
    <contour>
      <point x="319.0" y="335" type="curve" smooth="yes"/>
      <point x="319.0" y="365"/>
      <point x="295.0" y="389"/>
      <point x="265.0" y="389" type="curve" smooth="yes"/>
      <point x="235.0" y="389"/>
      <point x="211.0" y="365"/>
      <point x="211.0" y="335" type="curve" smooth="yes"/>
      <point x="211.0" y="305"/>
      <point x="235.0" y="281"/>
      <point x="265.0" y="281" type="curve" smooth="yes"/>
      <point x="295.0" y="281"/>
      <point x="319.0" y="305"/>
    </contour>
    <contour>
      <point x="211.0" y="-168" type="line" smooth="yes"/>
      <point x="209.0" y="-227"/>
      <point x="255.0" y="-232"/>
      <point x="265.0" y="-232" type="curve" smooth="yes"/>
      <point x="273.0" y="-232"/>
      <point x="321.0" y="-228"/>
      <point x="319.0" y="-168" type="curve" smooth="yes"/>
      <point x="308.0" y="160" type="line" smooth="yes"/>
      <point x="307.0" y="198"/>
      <point x="289.0" y="199"/>
      <point x="265.0" y="199" type="curve" smooth="yes"/>
      <point x="242.0" y="199"/>
      <point x="223.0" y="199"/>
      <point x="222.0" y="160" type="curve" smooth="yes"/>
    </contour>
  </outline>
</glyph>
<glyph name="acute" format="2">
  <advance width="531"/>
  <unicode hex="00B4"/>
  <outline>
    <contour>
      <point x="223" y="555" type="line" smooth="yes"/>
      <point x="210" y="550"/>
      <point x="195" y="544"/>
      <point x="195" y="524" type="curve" smooth="yes"/>
      <point x="195" y="523"/>
      <point x="199" y="480"/>
      <point x="231" y="480" type="curve" smooth="yes"/>
      <point x="237" y="480"/>
      <point x="284" y="498"/>
      <point x="310" y="508" type="curve" smooth="yes"/>
      <point x="382" y="535" type="line" smooth="yes"/>
      <point x="392" y="539"/>
      <point x="412" y="547"/>
      <point x="412" y="573" type="curve" smooth="yes"/>
      <point x="412" y="593"/>
      <point x="396" y="611"/>
      <point x="374" y="611" type="curve" smooth="yes"/>
      <point x="367" y="611"/>
      <point x="366" y="610"/>
      <point x="352" y="605" type="curve" smooth="yes"/>
    </contour>
  </outline>
</glyph>
<glyph name="cedilla" format="2">
  <advance width="531"/>
  <unicode hex="00B8"/>
  <outline>
    <contour>
      <point x="204" y="-140" type="line" smooth="yes"/>
      <point x="188" y="-140"/>
      <point x="161" y="-140"/>
      <point x="161" y="-173" type="curve" smooth="yes"/>
      <point x="161" y="-206"/>
      <point x="184" y="-206"/>
      <point x="218" y="-206" type="curve" smooth="yes"/>
      <point x="299" y="-206"/>
      <point x="436" y="-203"/>
      <point x="436" y="-102" type="curve" smooth="yes"/>
      <point x="436" y="-67"/>
      <point x="415" y="-20"/>
      <point x="336" y="-3" type="curve"/>
      <point x="336" y="32"/>
      <point x="336" y="52"/>
      <point x="298" y="52" type="curve" smooth="yes"/>
      <point x="260" y="52"/>
      <point x="260" y="27"/>
      <point x="260" y="7" type="curve" smooth="yes"/>
      <point x="260" y="-20" type="line" smooth="yes"/>
      <point x="260" y="-40"/>
      <point x="260" y="-63"/>
      <point x="295" y="-65" type="curve" smooth="yes"/>
      <point x="335" y="-67"/>
      <point x="360" y="-83"/>
      <point x="360" y="-102" type="curve" smooth="yes"/>
      <point x="360" y="-140"/>
      <point x="251" y="-140"/>
      <point x="226" y="-140" type="curve" smooth="yes"/>
    </contour>
  </outline>
</glyph>
<glyph name="questiondown" format="2">
  <advance width="531"/>
  <unicode hex="00BF"/>
  <outline>
    <contour>
      <point x="303" y="335" type="curve" smooth="yes"/>
      <point x="303" y="365"/>
      <point x="279" y="389"/>
      <point x="249" y="389" type="curve" smooth="yes"/>
      <point x="219" y="389"/>
      <point x="195" y="365"/>
      <point x="195" y="335" type="curve" smooth="yes"/>
      <point x="195" y="305"/>
      <point x="219" y="281"/>
      <point x="249" y="281" type="curve" smooth="yes"/>
      <point x="279" y="281"/>
      <point x="303" y="305"/>
    </contour>
    <contour>
      <point x="206" y="138" type="line" smooth="yes"/>
      <point x="206" y="57"/>
      <point x="157" y="16"/>
      <point x="114" y="-12" type="curve" smooth="yes"/>
      <point x="84" y="-31"/>
      <point x="63" y="-66"/>
      <point x="63" y="-103" type="curve" smooth="yes"/>
      <point x="63" y="-198"/>
      <point x="160" y="-227"/>
      <point x="251" y="-227" type="curve" smooth="yes"/>
      <point x="292" y="-227"/>
      <point x="468" y="-227"/>
      <point x="468" y="-105" type="curve" smooth="yes"/>
      <point x="468" y="-71"/>
      <point x="443" y="-55"/>
      <point x="419" y="-55" type="curve" smooth="yes"/>
      <point x="394" y="-55"/>
      <point x="371" y="-74"/>
      <point x="371" y="-103" type="curve" smooth="yes"/>
      <point x="371" y="-117"/>
      <point x="376" y="-127"/>
      <point x="380" y="-132" type="curve"/>
      <point x="348" y="-159"/>
      <point x="280" y="-161"/>
      <point x="251" y="-161" type="curve" smooth="yes"/>
      <point x="231" y="-161"/>
      <point x="139" y="-161"/>
      <point x="139" y="-103" type="curve" smooth="yes"/>
      <point x="139" y="-80"/>
      <point x="154" y="-69"/>
      <point x="174" y="-56" type="curve" smooth="yes"/>
      <point x="292" y="22"/>
      <point x="292" y="111"/>
      <point x="292" y="146" type="curve" smooth="yes"/>
      <point x="292" y="183"/>
      <point x="292" y="199"/>
      <point x="249" y="199" type="curve" smooth="yes"/>
      <point x="221" y="199"/>
      <point x="206" y="196"/>
      <point x="206" y="156" type="curve" smooth="yes"/>
    </contour>
  </outline>
</glyph>
<glyph name="caron" format="2">
  <advance width="531"/>
  <unicode hex="02C7"/>
  <outline>
    <contour>
      <point x="265" y="523" type="line"/>
      <point x="154" y="567" type="line"/>
      <point x="141" y="573"/>
      <point x="139" y="573"/>
      <point x="136" y="573" type="curve" smooth="yes"/>
      <point x="104" y="573"/>
      <point x="100" y="533"/>
      <point x="100" y="529" type="curve" smooth="yes"/>
      <point x="100" y="509"/>
      <point x="113" y="501"/>
      <point x="128" y="496" type="curve" smooth="yes"/>
      <point x="245" y="455" type="line" smooth="yes"/>
      <point x="258" y="450"/>
      <point x="260" y="450"/>
      <point x="265" y="450" type="curve" smooth="yes"/>
      <point x="271" y="450"/>
      <point x="313" y="465"/>
      <point x="337" y="474" type="curve"/>
      <point x="351" y="478"/>
      <point x="384" y="490"/>
      <point x="397" y="495" type="curve"/>
      <point x="416" y="501"/>
      <point x="430" y="506"/>
      <point x="430" y="529" type="curve" smooth="yes"/>
      <point x="430" y="533"/>
      <point x="425" y="573"/>
      <point x="394" y="573" type="curve" smooth="yes"/>
      <point x="391" y="573"/>
      <point x="389" y="573"/>
      <point x="376" y="567" type="curve"/>
    </contour>
  </outline>
</glyph>
<glyph name="Gamma" format="2">
  <advance width="531"/>
  <unicode hex="0393"/>
  <outline>
    <contour>
      <point x="183" y="545" type="line"/>
      <point x="418" y="545" type="line"/>
      <point x="418" y="494" type="line" smooth="yes"/>
      <point x="418" y="475"/>
      <point x="418" y="451"/>
      <point x="456" y="451" type="curve" smooth="yes"/>
      <point x="494" y="451"/>
      <point x="494" y="475"/>
      <point x="494" y="494" type="curve" smooth="yes"/>
      <point x="494" y="568" type="line" smooth="yes"/>
      <point x="494" y="602"/>
      <point x="484" y="611"/>
      <point x="451" y="611" type="curve" smooth="yes"/>
      <point x="74" y="611" type="line" smooth="yes"/>
      <point x="59" y="611"/>
      <point x="30" y="611"/>
      <point x="30" y="578" type="curve" smooth="yes"/>
      <point x="30" y="545"/>
      <point x="60" y="545"/>
      <point x="74" y="545" type="curve" smooth="yes"/>
      <point x="107" y="545" type="line"/>
      <point x="107" y="66" type="line"/>
      <point x="74" y="66" type="line" smooth="yes"/>
      <point x="59" y="66"/>
      <point x="30" y="66"/>
      <point x="30" y="33" type="curve" smooth="yes"/>
      <point x="30" y="0"/>
      <point x="60" y="0"/>
      <point x="74" y="0" type="curve" smooth="yes"/>
      <point x="235" y="0" type="line" smooth="yes"/>
      <point x="250" y="0"/>
      <point x="279" y="0"/>
      <point x="279" y="33" type="curve" smooth="yes"/>
      <point x="279" y="66"/>
      <point x="250" y="66"/>
      <point x="235" y="66" type="curve" smooth="yes"/>
      <point x="183" y="66" type="line"/>
    </contour>
  </outline>
</glyph>
<glyph name="Xi" format="2">
  <advance width="531"/>
  <unicode hex="039E"/>
  <outline>
    <contour>
      <point x="416" y="546" type="line"/>
      <point x="416" y="528"/>
      <point x="416" y="504"/>
      <point x="454" y="504" type="curve" smooth="yes"/>
      <point x="492" y="504"/>
      <point x="492" y="528"/>
      <point x="492" y="547" type="curve" smooth="yes"/>
      <point x="492" y="568" type="line" smooth="yes"/>
      <point x="492" y="602"/>
      <point x="482" y="611"/>
      <point x="449" y="611" type="curve" smooth="yes"/>
      <point x="82" y="611" type="line" smooth="yes"/>
      <point x="51" y="611"/>
      <point x="38" y="605"/>
      <point x="38" y="568" type="curve" smooth="yes"/>
      <point x="38" y="547" type="line" smooth="yes"/>
      <point x="38" y="528"/>
      <point x="38" y="504"/>
      <point x="76" y="504" type="curve" smooth="yes"/>
      <point x="114" y="504"/>
      <point x="114" y="528"/>
      <point x="114" y="546" type="curve"/>
    </contour>
    <contour>
      <point x="454" y="0" type="line" smooth="yes"/>
      <point x="487" y="0"/>
      <point x="497" y="8"/>
      <point x="497" y="43" type="curve" smooth="yes"/>
      <point x="497" y="69" type="line" smooth="yes"/>
      <point x="497" y="88"/>
      <point x="497" y="112"/>
      <point x="459" y="112" type="curve" smooth="yes"/>
      <point x="421" y="112"/>
      <point x="421" y="89"/>
      <point x="421" y="65" type="curve"/>
      <point x="109" y="65" type="line"/>
      <point x="109" y="89"/>
      <point x="109" y="112"/>
      <point x="71" y="112" type="curve" smooth="yes"/>
      <point x="33" y="112"/>
      <point x="33" y="88"/>
      <point x="33" y="69" type="curve" smooth="yes"/>
      <point x="33" y="43" type="line" smooth="yes"/>
      <point x="33" y="8"/>
      <point x="44" y="0"/>
      <point x="77" y="0" type="curve" smooth="yes"/>
    </contour>
    <contour>
      <point x="187" y="350" type="line"/>
      <point x="186" y="385"/>
      <point x="161" y="385"/>
      <point x="149" y="385" type="curve" smooth="yes"/>
      <point x="111" y="385"/>
      <point x="111" y="361"/>
      <point x="111" y="342" type="curve" smooth="yes"/>
      <point x="111" y="293" type="line" smooth="yes"/>
      <point x="111" y="274"/>
      <point x="111" y="250"/>
      <point x="149" y="250" type="curve" smooth="yes"/>
      <point x="161" y="250"/>
      <point x="186" y="250"/>
      <point x="187" y="285" type="curve"/>
      <point x="343" y="285" type="line"/>
      <point x="344" y="250"/>
      <point x="369" y="250"/>
      <point x="381" y="250" type="curve" smooth="yes"/>
      <point x="419" y="250"/>
      <point x="419" y="274"/>
      <point x="419" y="293" type="curve" smooth="yes"/>
      <point x="419" y="342" type="line" smooth="yes"/>
      <point x="419" y="361"/>
      <point x="419" y="385"/>
      <point x="381" y="385" type="curve" smooth="yes"/>
      <point x="369" y="385"/>
      <point x="344" y="385"/>
      <point x="343" y="350" type="curve"/>
    </contour>
  </outline>
</glyph>
<glyph name="Sigma" format="2">
  <advance width="531"/>
  <unicode hex="03A3"/>
  <outline>
    <contour>
      <point x="272" y="280" type="line" smooth="yes"/>
      <point x="282" y="296"/>
      <point x="282" y="298"/>
      <point x="282" y="313" type="curve"/>
      <point x="143" y="545" type="line"/>
      <point x="413" y="545" type="line"/>
      <point x="413" y="494" type="line" smooth="yes"/>
      <point x="413" y="475"/>
      <point x="413" y="451"/>
      <point x="451" y="451" type="curve" smooth="yes"/>
      <point x="489" y="451"/>
      <point x="489" y="475"/>
      <point x="489" y="494" type="curve" smooth="yes"/>
      <point x="489" y="568" type="line" smooth="yes"/>
      <point x="489" y="602"/>
      <point x="479" y="611"/>
      <point x="446" y="611" type="curve" smooth="yes"/>
      <point x="85" y="611" type="line" smooth="yes"/>
      <point x="70" y="611"/>
      <point x="41" y="611"/>
      <point x="41" y="578" type="curve" smooth="yes"/>
      <point x="41" y="573"/>
      <point x="41" y="566"/>
      <point x="50" y="551" type="curve" smooth="yes"/>
      <point x="199" y="305" type="line"/>
      <point x="51" y="56" type="line" smooth="yes"/>
      <point x="43" y="43"/>
      <point x="41" y="39"/>
      <point x="41" y="31" type="curve" smooth="yes"/>
      <point x="41" y="0"/>
      <point x="72" y="0"/>
      <point x="85" y="0" type="curve" smooth="yes"/>
      <point x="446" y="0" type="line" smooth="yes"/>
      <point x="479" y="0"/>
      <point x="489" y="8"/>
      <point x="489" y="43" type="curve" smooth="yes"/>
      <point x="489" y="119" type="line" smooth="yes"/>
      <point x="489" y="138"/>
      <point x="489" y="162"/>
      <point x="451" y="162" type="curve" smooth="yes"/>
      <point x="413" y="162"/>
      <point x="413" y="138"/>
      <point x="413" y="119" type="curve" smooth="yes"/>
      <point x="413" y="68" type="line"/>
      <point x="146" y="68" type="line"/>
    </contour>
  </outline>
</glyph>
<glyph name="Upsilon" format="2">
  <advance width="531"/>
  <unicode hex="03A5"/>
  <outline>
    <contour>
      <point x="303" y="356" type="line" smooth="yes"/>
      <point x="303" y="405"/>
      <point x="303" y="564"/>
      <point x="372" y="564" type="curve" smooth="yes"/>
      <point x="413" y="564"/>
      <point x="416" y="506"/>
      <point x="416" y="493" type="curve" smooth="yes"/>
      <point x="417" y="458"/>
      <point x="441" y="458"/>
      <point x="454" y="458" type="curve" smooth="yes"/>
      <point x="464" y="458"/>
      <point x="492" y="458"/>
      <point x="492" y="492" type="curve" smooth="yes"/>
      <point x="492" y="553"/>
      <point x="445" y="621"/>
      <point x="373" y="621" type="curve" smooth="yes"/>
      <point x="317" y="621"/>
      <point x="280" y="582"/>
      <point x="265" y="487" type="curve"/>
      <point x="264" y="487" type="line"/>
      <point x="249" y="588"/>
      <point x="209" y="621"/>
      <point x="157" y="621" type="curve" smooth="yes"/>
      <point x="85" y="621"/>
      <point x="38" y="553"/>
      <point x="38" y="492" type="curve" smooth="yes"/>
      <point x="38" y="458"/>
      <point x="66" y="458"/>
      <point x="76" y="458" type="curve" smooth="yes"/>
      <point x="87" y="458"/>
      <point x="113" y="458"/>
      <point x="114" y="492" type="curve" smooth="yes"/>
      <point x="114" y="504"/>
      <point x="116" y="564"/>
      <point x="158" y="564" type="curve" smooth="yes"/>
      <point x="227" y="564"/>
      <point x="227" y="405"/>
      <point x="227" y="356" type="curve" smooth="yes"/>
      <point x="227" y="66" type="line"/>
      <point x="195" y="66" type="line" smooth="yes"/>
      <point x="179" y="66"/>
      <point x="152" y="66"/>
      <point x="152" y="33" type="curve" smooth="yes"/>
      <point x="152" y="0"/>
      <point x="179" y="0"/>
      <point x="195" y="0" type="curve" smooth="yes"/>
      <point x="335" y="0" type="line" smooth="yes"/>
      <point x="351" y="0"/>
      <point x="378" y="0"/>
      <point x="378" y="33" type="curve" smooth="yes"/>
      <point x="378" y="66"/>
      <point x="351" y="66"/>
      <point x="335" y="66" type="curve" smooth="yes"/>
      <point x="303" y="66" type="line"/>
    </contour>
  </outline>
</glyph>
<glyph name="Phi" format="2">
  <advance width="531"/>
  <unicode hex="03A6"/>
  <outline>
    <contour>
      <point x="189" y="611" type="line" smooth="yes"/>
      <point x="174" y="611"/>
      <point x="146" y="611"/>
      <point x="146" y="578" type="curve" smooth="yes"/>
      <point x="146" y="545"/>
      <point x="174" y="545"/>
      <point x="189" y="545" type="curve" smooth="yes"/>
      <point x="227" y="545" type="line"/>
      <point x="227" y="451" type="line"/>
      <point x="116" y="439"/>
      <point x="41" y="374"/>
      <point x="41" y="306" type="curve" smooth="yes"/>
      <point x="41" y="233"/>
      <point x="121" y="172"/>
      <point x="227" y="160" type="curve"/>
      <point x="227" y="66" type="line"/>
      <point x="189" y="66" type="line" smooth="yes"/>
      <point x="174" y="66"/>
      <point x="146" y="66"/>
      <point x="146" y="33" type="curve" smooth="yes"/>
      <point x="146" y="0"/>
      <point x="174" y="0"/>
      <point x="189" y="0" type="curve" smooth="yes"/>
      <point x="341" y="0" type="line" smooth="yes"/>
      <point x="356" y="0"/>
      <point x="384" y="0"/>
      <point x="384" y="33" type="curve" smooth="yes"/>
      <point x="384" y="66"/>
      <point x="356" y="66"/>
      <point x="341" y="66" type="curve" smooth="yes"/>
      <point x="303" y="66" type="line"/>
      <point x="303" y="160" type="line"/>
      <point x="414" y="172"/>
      <point x="489" y="237"/>
      <point x="489" y="305" type="curve" smooth="yes"/>
      <point x="489" y="378"/>
      <point x="409" y="439"/>
      <point x="303" y="451" type="curve"/>
      <point x="303" y="545" type="line"/>
      <point x="341" y="545" type="line" smooth="yes"/>
      <point x="356" y="545"/>
      <point x="384" y="545"/>
      <point x="384" y="578" type="curve" smooth="yes"/>
      <point x="384" y="611"/>
      <point x="356" y="611"/>
      <point x="341" y="611" type="curve" smooth="yes"/>
    </contour>
    <contour>
      <point x="227" y="227" type="line"/>
      <point x="168" y="234"/>
      <point x="117" y="266"/>
      <point x="117" y="305" type="curve" smooth="yes"/>
      <point x="117" y="347"/>
      <point x="172" y="377"/>
      <point x="227" y="384" type="curve"/>
    </contour>
    <contour>
      <point x="303" y="384" type="line"/>
      <point x="362" y="377"/>
      <point x="413" y="345"/>
      <point x="413" y="306" type="curve" smooth="yes"/>
      <point x="413" y="264"/>
      <point x="358" y="234"/>
      <point x="303" y="227" type="curve"/>
    </contour>
  </outline>
</glyph>
<glyph name="arrowup" format="2">
  <advance width="531"/>
  <unicode hex="2191"/>
  <outline>
    <contour>
      <point x="304" y="475" type="line"/>
      <point x="359" y="426"/>
      <point x="428" y="400"/>
      <point x="443" y="400" type="curve" smooth="yes"/>
      <point x="457" y="400"/>
      <point x="474" y="412"/>
      <point x="474" y="433" type="curve" smooth="yes"/>
      <point x="474" y="448"/>
      <point x="466" y="460"/>
      <point x="451" y="465" type="curve" smooth="yes"/>
      <point x="417" y="478"/>
      <point x="348" y="502"/>
      <point x="295" y="592" type="curve"/>
      <point x="291" y="598"/>
      <point x="283" y="611"/>
      <point x="266" y="611" type="curve" smooth="yes"/>
      <point x="248" y="611"/>
      <point x="243" y="602"/>
      <point x="233" y="585" type="curve" smooth="yes"/>
      <point x="181" y="501"/>
      <point x="109" y="476"/>
      <point x="78" y="464" type="curve" smooth="yes"/>
      <point x="64" y="459"/>
      <point x="57" y="446"/>
      <point x="57" y="433" type="curve" smooth="yes"/>
      <point x="57" y="412"/>
      <point x="74" y="400"/>
      <point x="88" y="400" type="curve" smooth="yes"/>
      <point x="103" y="400"/>
      <point x="172" y="426"/>
      <point x="227" y="475" type="curve"/>
      <point x="227" y="50" type="line" smooth="yes"/>
      <point x="227" y="39"/>
      <point x="227" y="0"/>
      <point x="265" y="0" type="curve" smooth="yes"/>
      <point x="304" y="0"/>
      <point x="304" y="38"/>
      <point x="304" y="50" type="curve" smooth="yes"/>
    </contour>
  </outline>
</glyph>
<glyph name="arrowdown" format="2">
  <advance width="531"/>
  <unicode hex="2193"/>
  <outline>
    <contour>
      <point x="304" y="561" type="line" smooth="yes"/>
      <point x="304" y="572"/>
      <point x="304" y="611"/>
      <point x="266" y="611" type="curve" smooth="yes"/>
      <point x="227" y="611"/>
      <point x="227" y="573"/>
      <point x="227" y="561" type="curve" smooth="yes"/>
      <point x="227" y="136" type="line"/>
      <point x="172" y="185"/>
      <point x="103" y="211"/>
      <point x="88" y="211" type="curve" smooth="yes"/>
      <point x="74" y="211"/>
      <point x="57" y="199"/>
      <point x="57" y="178" type="curve" smooth="yes"/>
      <point x="57" y="163"/>
      <point x="65" y="151"/>
      <point x="80" y="146" type="curve" smooth="yes"/>
      <point x="108" y="136"/>
      <point x="180" y="110"/>
      <point x="231" y="29" type="curve" smooth="yes"/>
      <point x="244" y="7"/>
      <point x="248" y="0"/>
      <point x="266" y="0" type="curve" smooth="yes"/>
      <point x="283" y="0"/>
      <point x="289" y="10"/>
      <point x="298" y="26" type="curve" smooth="yes"/>
      <point x="349" y="109"/>
      <point x="423" y="136"/>
      <point x="453" y="147" type="curve" smooth="yes"/>
      <point x="467" y="152"/>
      <point x="474" y="165"/>
      <point x="474" y="178" type="curve" smooth="yes"/>
      <point x="474" y="199"/>
      <point x="457" y="211"/>
      <point x="443" y="211" type="curve" smooth="yes"/>
      <point x="428" y="211"/>
      <point x="359" y="185"/>
      <point x="304" y="136" type="curve"/>
    </contour>
  </outline>
</glyph>
<glyph name="Delta" format="2">
  <advance width="531"/>
  <unicode hex="2206"/>
  <outline>
    <contour>
      <point x="325" y="586" type="line" smooth="yes"/>
      <point x="313" y="626"/>
      <point x="295" y="626"/>
      <point x="265" y="626" type="curve" smooth="yes"/>
      <point x="236" y="626"/>
      <point x="217" y="626"/>
      <point x="205" y="586" type="curve" smooth="yes"/>
      <point x="39" y="43" type="line"/>
      <point x="35" y="32"/>
      <point x="35" y="30"/>
      <point x="35" y="24" type="curve" smooth="yes"/>
      <point x="35" y="0"/>
      <point x="59" y="0"/>
      <point x="72" y="0" type="curve" smooth="yes"/>
      <point x="458" y="0" type="line" smooth="yes"/>
      <point x="471" y="0"/>
      <point x="495" y="0"/>
      <point x="495" y="24" type="curve" smooth="yes"/>
      <point x="495" y="30"/>
      <point x="495" y="32"/>
      <point x="491" y="43" type="curve"/>
    </contour>
    <contour>
      <point x="232" y="418" type="line" smooth="yes"/>
      <point x="237" y="433"/>
      <point x="258" y="505"/>
      <point x="264" y="533" type="curve"/>
      <point x="265" y="533" type="line"/>
      <point x="272" y="504"/>
      <point x="293" y="436"/>
      <point x="298" y="418" type="curve" smooth="yes"/>
      <point x="401" y="74" type="line"/>
      <point x="129" y="74" type="line"/>
    </contour>
  </outline>
</glyph>
